<svg width="315" height="315" viewBox="0 0 315 315" fill="none" xmlns="http://www.w3.org/2000/svg">
<g id="Frame 2336">
<g id="Frame 2367" filter="url(#filter0_d_8372_185406)">
<rect x="32" y="73" width="251" height="169" rx="12" fill="white" shape-rendering="crispEdges"/>
<g id="Group 810">
<rect id="Rectangle 811" x="196" y="91" width="69" height="77" rx="7" fill="#E9E9E9"/>
<g id="Frame 2352">
<rect id="Rectangle 813" x="50" y="208" width="215" height="16" rx="3" fill="#E9E9E9"/>
</g>
<g id="Frame 2355">
<rect id="Rectangle 813_2" x="50" y="184" width="215" height="16" rx="3" fill="#E9E9E9"/>
</g>
<rect id="Rectangle 813_3" x="50" y="131" width="134" height="20" rx="3" fill="#E9E9E9"/>
<rect id="Rectangle 813_4" x="50" y="113" width="134" height="12" rx="3" fill="#E9E9E9"/>
</g>
<g id="Mask group">
<mask id="mask0_8372_185406" style="mask-type:alpha" maskUnits="userSpaceOnUse" x="196" y="91" width="69" height="77">
<rect id="Rectangle 811_2" x="196" y="91" width="69" height="77" rx="7" fill="#E9E9E9"/>
</mask>
<g mask="url(#mask0_8372_185406)">
<g id="Frame 2356">
<path id="Stroke 12" fill-rule="evenodd" clip-rule="evenodd" d="M266.224 184.087C266.224 164.775 250.251 149.093 230.576 149.093C212.383 149.093 197.367 162.504 195.205 179.793L195.146 179.804L193.767 191.566C193.767 191.566 193.621 192.509 194.929 192.581L194.998 192.516L205.674 193.581V214.145H255.406V198.544L266.224 199.624V184.087Z" fill="#06C555" stroke="#1E201F" stroke-width="1.2" stroke-linecap="round" stroke-linejoin="round"/>
<path id="Fill 20" fill-rule="evenodd" clip-rule="evenodd" d="M236.747 150.399C236.747 153.739 233.988 156.498 230.648 156.498H230.431C227.091 156.498 224.332 153.739 224.332 150.399V143.72C224.332 140.38 227.091 137.622 230.431 137.622H230.648C233.988 137.622 236.747 140.38 236.747 143.72V150.399Z" fill="white"/>
<path id="Stroke 22" fill-rule="evenodd" clip-rule="evenodd" d="M236.747 150.399C236.747 153.739 233.988 156.498 230.648 156.498H230.431C227.091 156.498 224.332 153.739 224.332 150.399V143.72C224.332 140.38 227.091 137.622 230.431 137.622H230.648C233.988 137.622 236.747 140.38 236.747 143.72V150.399Z" stroke="#1E201F" stroke-width="1.2" stroke-linecap="round" stroke-linejoin="round"/>
<g id="Frame 2357">
<path id="Fill 8" fill-rule="evenodd" clip-rule="evenodd" d="M230.622 115.62C230.622 115.62 227.172 113.55 224.265 116.309C221.357 119.069 214.162 125.378 218.203 132.179C222.244 138.979 225.497 132.08 225.497 132.08L243.041 132.819C243.041 132.819 244.273 129.468 244.273 127.743C244.273 126.018 241.908 121.73 239.197 118.478C236.487 115.225 233.678 113.648 230.622 115.62" fill="#1E201F"/>
<path id="Stroke 24" fill-rule="evenodd" clip-rule="evenodd" d="M220.573 139.09C220.573 139.09 221.816 148.736 230.764 148.836C230.764 148.836 236.531 149.43 239.961 142.819C239.961 142.819 240.557 141.426 240.906 139.487C240.906 139.487 244.485 137.649 244.137 133.97C243.789 130.29 241.701 130.689 241.701 130.689L240.604 133.024C240.604 133.024 237.556 130.393 237.436 128.241C237.317 126.09 237.795 123.819 234.328 123.819C230.862 123.819 226.677 123.878 226.677 123.878C226.677 123.878 224.526 123.698 224.346 125.97C224.167 128.241 223.689 131.051 222.733 131.827C221.776 132.605 220.64 133.322 219.923 132.306C219.206 131.29 218.25 131.35 217.592 132.306C216.935 133.262 216.261 137.147 220.573 139.09Z" stroke="white" stroke-linecap="round" stroke-linejoin="round"/>
<path id="Fill 26" fill-rule="evenodd" clip-rule="evenodd" d="M220.573 139.09C220.573 139.09 221.816 148.736 230.764 148.836C230.764 148.836 236.531 149.43 239.961 142.819C239.961 142.819 240.557 141.426 240.906 139.487C240.906 139.487 244.485 137.649 244.137 133.97C243.789 130.29 241.701 130.689 241.701 130.689L240.604 133.024C240.604 133.024 237.556 130.393 237.436 128.241C237.317 126.09 237.795 123.819 234.328 123.819C230.862 123.819 226.677 123.878 226.677 123.878C226.677 123.878 224.526 123.698 224.346 125.97C224.167 128.241 223.689 131.051 222.733 131.827C221.776 132.605 220.64 133.322 219.923 132.306C219.206 131.29 218.25 131.35 217.592 132.306C216.935 133.262 216.261 137.147 220.573 139.09" fill="white"/>
<path id="Stroke 28" fill-rule="evenodd" clip-rule="evenodd" d="M228.547 141.547C228.547 141.547 232.541 141.43 233.715 141.665C233.715 141.665 233.215 143.474 231.19 144.249C231.19 144.249 230.104 144.078 229.331 143.108C228.559 142.138 228.547 141.547 228.547 141.547Z" stroke="#1E201F" stroke-width="1.2" stroke-linecap="round" stroke-linejoin="round"/>
<path id="Stroke 30" fill-rule="evenodd" clip-rule="evenodd" d="M220.573 139.09C220.573 139.09 221.816 148.736 230.764 148.836C230.764 148.836 236.531 149.43 239.961 142.819C239.961 142.819 240.557 141.426 240.906 139.487C240.906 139.487 244.485 137.649 244.137 133.97C243.789 130.29 241.701 130.689 241.701 130.689L240.604 133.024C240.604 133.024 237.556 130.393 237.436 128.241C237.317 126.09 237.795 123.819 234.328 123.819C230.862 123.819 226.677 123.878 226.677 123.878C226.677 123.878 224.526 123.698 224.346 125.97C224.167 128.241 223.689 131.051 222.733 131.827C221.776 132.605 220.64 133.322 219.923 132.306C219.206 131.29 218.25 131.35 217.592 132.306C216.935 133.262 216.261 137.147 220.573 139.09Z" stroke="#1E201F" stroke-width="1.2" stroke-linecap="round" stroke-linejoin="round"/>
<path id="Fill 32" fill-rule="evenodd" clip-rule="evenodd" d="M228.806 134.619C228.806 135.237 228.305 135.739 227.686 135.739C227.067 135.739 226.566 135.237 226.566 134.619C226.566 134 227.067 133.498 227.686 133.498C228.305 133.498 228.806 134 228.806 134.619" fill="#1E201F"/>
<path id="Fill 34" fill-rule="evenodd" clip-rule="evenodd" d="M236.439 134.358C236.439 134.977 235.938 135.478 235.319 135.478C234.7 135.478 234.199 134.977 234.199 134.358C234.199 133.74 234.7 133.238 235.319 133.238C235.938 133.238 236.439 133.74 236.439 134.358" fill="#1E201F"/>
<path id="Stroke 36" d="M231.145 138.186L230.996 138.815" stroke="#1E201F" stroke-width="1.2" stroke-linecap="round" stroke-linejoin="round"/>
</g>
</g>
</g>
</g>
<rect x="32.5" y="73.5" width="250" height="168" rx="11.5" stroke="#1E201F" shape-rendering="crispEdges"/>
</g>
</g>
<defs>
<filter id="filter0_d_8372_185406" x="32" y="73" width="255" height="173" filterUnits="userSpaceOnUse" color-interpolation-filters="sRGB">
<feFlood flood-opacity="0" result="BackgroundImageFix"/>
<feColorMatrix in="SourceAlpha" type="matrix" values="0 0 0 0 0 0 0 0 0 0 0 0 0 0 0 0 0 0 127 0" result="hardAlpha"/>
<feOffset dx="4" dy="4"/>
<feComposite in2="hardAlpha" operator="out"/>
<feColorMatrix type="matrix" values="0 0 0 0 0.117647 0 0 0 0 0.12549 0 0 0 0 0.121569 0 0 0 1 0"/>
<feBlend mode="normal" in2="BackgroundImageFix" result="effect1_dropShadow_8372_185406"/>
<feBlend mode="normal" in="SourceGraphic" in2="effect1_dropShadow_8372_185406" result="shape"/>
</filter>
</defs>
</svg>
