<svg width="315" height="315" viewBox="0 0 315 315" fill="none" xmlns="http://www.w3.org/2000/svg">
<g filter="url(#filter0_d_8372_185137)">
<rect x="32" y="79" width="251" height="157" rx="12" fill="white" shape-rendering="crispEdges"/>
<rect x="196" y="97" width="69" height="78" rx="7" fill="#E9E9E9"/>
<rect x="50" y="97" width="28" height="20" rx="3" fill="#E9E9E9"/>
<rect x="50" y="163" width="130" height="12" rx="3" fill="#E9E9E9"/>
<rect x="50" y="185" width="130" height="12" rx="3" fill="#E9E9E9"/>
<rect x="50" y="206" width="130" height="12" rx="3" fill="#E9E9E9"/>
<rect x="196" y="206" width="69" height="12" rx="3" fill="#E9E9E9"/>
<rect x="86" y="97" width="95" height="20" rx="3" fill="#E9E9E9"/>
<mask id="mask0_8372_185137" style="mask-type:alpha" maskUnits="userSpaceOnUse" x="196" y="97" width="69" height="78">
<rect x="196" y="97" width="69" height="78" rx="7" fill="#E9E9E9"/>
</mask>
<g mask="url(#mask0_8372_185137)">
<path fill-rule="evenodd" clip-rule="evenodd" d="M230.622 119.867C230.622 119.867 227.172 117.797 224.265 120.556C221.357 123.316 214.162 129.625 218.203 136.426C222.244 143.226 225.497 136.327 225.497 136.327L243.041 137.066C243.041 137.066 244.273 133.715 244.273 131.99C244.273 130.265 241.908 125.977 239.197 122.725C236.487 119.472 233.678 117.895 230.622 119.867" fill="#1E201F"/>
<path fill-rule="evenodd" clip-rule="evenodd" d="M266.224 188.334C266.224 169.022 250.251 153.34 230.576 153.34C212.383 153.34 197.367 166.751 195.205 184.04L195.146 184.051L193.767 195.813C193.767 195.813 193.621 196.756 194.929 196.828L194.998 196.763L205.674 197.828V218.392H255.406V202.791L266.224 203.871V188.334Z" fill="#06C555" stroke="#1E201F" stroke-width="1.2" stroke-linecap="round" stroke-linejoin="round"/>
<path fill-rule="evenodd" clip-rule="evenodd" d="M236.747 154.646C236.747 157.986 233.988 160.745 230.648 160.745H230.431C227.091 160.745 224.332 157.986 224.332 154.646V147.967C224.332 144.627 227.091 141.869 230.431 141.869H230.648C233.988 141.869 236.747 144.627 236.747 147.967V154.646Z" fill="white"/>
<path fill-rule="evenodd" clip-rule="evenodd" d="M236.747 154.646C236.747 157.986 233.988 160.745 230.648 160.745H230.431C227.091 160.745 224.332 157.986 224.332 154.646V147.967C224.332 144.627 227.091 141.869 230.431 141.869H230.648C233.988 141.869 236.747 144.627 236.747 147.967V154.646Z" stroke="#1E201F" stroke-width="1.2" stroke-linecap="round" stroke-linejoin="round"/>
<path fill-rule="evenodd" clip-rule="evenodd" d="M220.573 143.337C220.573 143.337 221.816 152.983 230.764 153.083C230.764 153.083 236.531 153.677 239.961 147.066C239.961 147.066 240.557 145.673 240.906 143.734C240.906 143.734 244.485 141.896 244.137 138.217C243.789 134.537 241.701 134.936 241.701 134.936L240.604 137.271C240.604 137.271 237.556 134.64 237.436 132.488C237.317 130.337 237.795 128.066 234.328 128.066C230.862 128.066 226.677 128.125 226.677 128.125C226.677 128.125 224.526 127.945 224.346 130.217C224.167 132.488 223.689 135.298 222.733 136.074C221.776 136.852 220.64 137.569 219.923 136.553C219.206 135.537 218.25 135.597 217.592 136.553C216.935 137.509 216.261 141.394 220.573 143.337Z" stroke="white" stroke-linecap="round" stroke-linejoin="round"/>
<path fill-rule="evenodd" clip-rule="evenodd" d="M220.573 143.337C220.573 143.337 221.816 152.983 230.764 153.083C230.764 153.083 236.531 153.677 239.961 147.066C239.961 147.066 240.557 145.673 240.906 143.734C240.906 143.734 244.485 141.896 244.137 138.217C243.789 134.537 241.701 134.936 241.701 134.936L240.604 137.271C240.604 137.271 237.556 134.64 237.436 132.488C237.317 130.337 237.795 128.066 234.328 128.066C230.862 128.066 226.677 128.125 226.677 128.125C226.677 128.125 224.526 127.945 224.346 130.217C224.167 132.488 223.689 135.298 222.733 136.074C221.776 136.852 220.64 137.569 219.923 136.553C219.206 135.537 218.25 135.597 217.592 136.553C216.935 137.509 216.261 141.394 220.573 143.337" fill="white"/>
<path fill-rule="evenodd" clip-rule="evenodd" d="M228.547 145.794C228.547 145.794 232.541 145.677 233.715 145.912C233.715 145.912 233.215 147.721 231.19 148.496C231.19 148.496 230.104 148.325 229.331 147.355C228.559 146.385 228.547 145.794 228.547 145.794Z" stroke="#1E201F" stroke-width="1.2" stroke-linecap="round" stroke-linejoin="round"/>
<path fill-rule="evenodd" clip-rule="evenodd" d="M220.573 143.337C220.573 143.337 221.816 152.983 230.764 153.083C230.764 153.083 236.531 153.677 239.961 147.066C239.961 147.066 240.557 145.673 240.906 143.734C240.906 143.734 244.485 141.896 244.137 138.217C243.789 134.537 241.701 134.936 241.701 134.936L240.604 137.271C240.604 137.271 237.556 134.64 237.436 132.488C237.317 130.337 237.795 128.066 234.328 128.066C230.862 128.066 226.677 128.125 226.677 128.125C226.677 128.125 224.526 127.945 224.346 130.217C224.167 132.488 223.689 135.298 222.733 136.074C221.776 136.852 220.64 137.569 219.923 136.553C219.206 135.537 218.25 135.597 217.592 136.553C216.935 137.509 216.261 141.394 220.573 143.337Z" stroke="#1E201F" stroke-width="1.2" stroke-linecap="round" stroke-linejoin="round"/>
<path fill-rule="evenodd" clip-rule="evenodd" d="M228.806 138.866C228.806 139.484 228.305 139.986 227.686 139.986C227.067 139.986 226.566 139.484 226.566 138.866C226.566 138.247 227.067 137.745 227.686 137.745C228.305 137.745 228.806 138.247 228.806 138.866" fill="#1E201F"/>
<path fill-rule="evenodd" clip-rule="evenodd" d="M236.439 138.605C236.439 139.224 235.938 139.725 235.319 139.725C234.7 139.725 234.199 139.224 234.199 138.605C234.199 137.987 234.7 137.485 235.319 137.485C235.938 137.485 236.439 137.987 236.439 138.605" fill="#1E201F"/>
<path d="M231.145 142.434L230.996 143.063" stroke="#1E201F" stroke-width="1.2" stroke-linecap="round" stroke-linejoin="round"/>
</g>
<rect x="32.5" y="79.5" width="250" height="156" rx="11.5" stroke="#1E201F" shape-rendering="crispEdges"/>
</g>
<defs>
<filter id="filter0_d_8372_185137" x="32" y="79" width="255" height="161" filterUnits="userSpaceOnUse" color-interpolation-filters="sRGB">
<feFlood flood-opacity="0" result="BackgroundImageFix"/>
<feColorMatrix in="SourceAlpha" type="matrix" values="0 0 0 0 0 0 0 0 0 0 0 0 0 0 0 0 0 0 127 0" result="hardAlpha"/>
<feOffset dx="4" dy="4"/>
<feComposite in2="hardAlpha" operator="out"/>
<feColorMatrix type="matrix" values="0 0 0 0 0.117647 0 0 0 0 0.12549 0 0 0 0 0.121569 0 0 0 1 0"/>
<feBlend mode="normal" in2="BackgroundImageFix" result="effect1_dropShadow_8372_185137"/>
<feBlend mode="normal" in="SourceGraphic" in2="effect1_dropShadow_8372_185137" result="shape"/>
</filter>
</defs>
</svg>
